<svg width="49" height="49" viewBox="0 0 49 49" fill="none" xmlns="http://www.w3.org/2000/svg">
<path d="M1.98441 29.7899C1.98441 27.5299 2.42954 25.2919 3.29444 23.204C4.15935 21.1159 5.42701 19.2187 7.02513 17.6206C8.62324 16.0225 10.5204 14.7548 12.6084 13.8899C14.6965 13.0251 16.9344 12.5799 19.1945 12.5799V29.7899H1.98441Z" fill="#442781"/>
<path d="M1.98441 29.7899C1.98441 32.05 2.42954 34.2879 3.29444 36.376C4.15935 38.464 5.42701 40.3612 7.02513 41.9593C8.62324 43.5574 10.5204 44.8251 12.6084 45.69C14.6965 46.5549 16.9344 47 19.1945 47V29.7899H1.98441Z" fill="#61459C"/>
<path d="M36.4043 29.7899C36.4043 32.05 35.9595 34.2879 35.0947 36.376C34.2298 38.464 32.9622 40.3612 31.3638 41.9593C29.7657 43.5574 27.8685 44.8251 25.7804 45.69C23.6925 46.5549 21.4545 47 19.1945 47V29.7899H36.4043Z" fill="#A992DB"/>
<path d="M47.0156 14.922C47.0156 22.0586 41.23 27.844 34.0935 27.844H21.1716V14.922C21.1716 7.7854 26.957 2 34.0935 2C41.23 2 47.0156 7.7854 47.0156 14.922Z" fill="#FF7917"/>
</svg>
